<svg width="66" height="66" viewBox="0 0 66 66" fill="none" xmlns="http://www.w3.org/2000/svg">
<rect width="66" height="66" rx="33" fill="#9FDC26"/>
<g clip-path="url(#clip0_2_2928)">
<path d="M33.1556 43.0401C30.7334 43.0401 28.6929 42.0014 27.4149 40.0697C26.2448 38.3012 25.9586 36.0573 26.7495 34.8496C27.1621 34.2194 27.83 33.934 28.5925 34.0662C29.7827 34.2746 31.6633 36.1528 32.1856 37.6543C32.5178 38.6084 32.2508 39.1876 31.968 39.5048C31.4917 40.0396 30.8155 40.222 30.1082 40.0019C29.0101 39.6604 28.0225 38.3866 27.861 37.1019C27.8493 37.0195 27.8542 36.9356 27.8752 36.855C27.8963 36.7745 27.9331 36.699 27.9836 36.6328C28.0341 36.5667 28.0973 36.5112 28.1694 36.4697C28.2416 36.4282 28.3213 36.4015 28.4038 36.391C28.4864 36.3806 28.5702 36.3867 28.6504 36.409C28.7306 36.4312 28.8056 36.4692 28.871 36.5207C28.9364 36.5722 28.9908 36.6362 29.0313 36.709C29.0717 36.7817 29.0972 36.8618 29.1064 36.9445C29.2169 37.8225 29.9191 38.6285 30.4807 38.8026C30.7778 38.8946 30.9251 38.7867 31.0297 38.6687C31.1109 38.5783 31.0992 38.3531 30.9996 38.066C30.5761 36.8491 29.0101 35.4137 28.3749 35.3024C28.1087 35.2572 27.9372 35.3258 27.7991 35.5368C27.348 36.2256 27.5061 37.933 28.4611 39.3759C29.2068 40.5024 30.9921 42.2969 34.5759 41.6524C39.1884 40.8238 39.4311 36.9152 39.2126 34.047L39.2018 33.9039C39.1432 33.1104 38.5498 32.471 37.4383 32.0015C35.5317 31.1971 33.0819 31.3168 32.5463 31.6165C32.4475 32.2609 32.5647 32.7405 32.9053 33.0803C33.908 34.0813 36.5746 33.8344 37.517 33.6553C37.6787 33.6265 37.8454 33.6623 37.981 33.755C38.1167 33.8477 38.2106 33.9899 38.2426 34.1511C38.2746 34.3123 38.2421 34.4795 38.1521 34.617C38.0622 34.7545 37.9219 34.8512 37.7614 34.8864C36.023 35.2455 34.9232 35.9167 34.4939 36.8834C33.8645 38.2996 34.8379 39.9877 34.8479 40.0053C34.9266 40.1481 34.9466 40.316 34.9037 40.4733C34.8607 40.6306 34.7583 40.7651 34.6179 40.8482C34.4776 40.9313 34.3105 40.9565 34.1519 40.9185C33.9933 40.8806 33.8557 40.7824 33.7682 40.6447C33.7138 40.5535 32.4551 38.395 33.3431 36.3821C33.5839 35.8432 33.948 35.3684 34.406 34.9961C33.5113 34.8697 32.6275 34.5751 32.0198 33.9683C31.5612 33.5105 31.0699 32.6702 31.3344 31.2666C31.5545 30.0982 33.7867 30.0974 34.7358 30.1509C37.26 30.2932 40.2731 31.3369 40.4555 33.8118L40.4664 33.9516C40.8615 39.1348 38.9549 42.142 34.8002 42.8886C34.2353 42.9899 33.6862 43.0401 33.1556 43.0401Z" fill="#262522"/>
<path d="M32.6878 38.149C31.4767 38.149 30.1284 36.6684 29.5434 36.0265C28.5114 34.8941 27.9766 33.6863 28.0753 32.713C28.1314 32.1572 28.3867 31.6986 28.8127 31.3881C29.8597 30.6256 31.4901 31.2215 32.6886 32.8042C33.3364 33.6596 35.3075 36.2625 33.6177 37.7832C33.3658 38.0195 33.0331 38.1503 32.6878 38.149ZM29.8564 32.3154C29.7485 32.311 29.642 32.3412 29.5526 32.4016C29.4672 32.4635 29.3509 32.5765 29.3241 32.8385C29.2764 33.3097 29.5526 34.1726 30.4715 35.1811C32.2953 37.1831 32.774 36.8534 32.7782 36.8492C33.4662 36.2299 32.5656 34.72 31.6876 33.5616C31.0675 32.7414 30.3259 32.3154 29.8564 32.3154Z" fill="#262522"/>
<path d="M31.9714 33.3322C31.8901 33.3323 31.8096 33.3163 31.7344 33.2851C31.6593 33.2539 31.5911 33.2082 31.5337 33.1506L31.5253 33.1422C31.5 33.1168 31.4767 33.0894 31.4559 33.0602C29.9142 30.8757 28.1574 26.3394 28.9132 24.2052C29.1902 23.4251 29.7217 23.128 30.1184 23.015C30.4256 22.928 30.9102 22.8962 31.4701 23.2351C33.2645 24.3207 34.5292 28.354 34.9929 30.566C35.0132 30.6479 35.0169 30.7331 35.0036 30.8164C34.9903 30.8997 34.9603 30.9795 34.9155 31.051C34.8707 31.1225 34.8119 31.1842 34.7427 31.2325C34.6735 31.2807 34.5953 31.3145 34.5127 31.3319C34.4301 31.3492 34.3449 31.3497 34.2621 31.3334C34.1793 31.317 34.1007 31.2842 34.0309 31.2367C33.9611 31.1893 33.9016 31.1283 33.8559 31.0574C33.8102 30.9864 33.7793 30.907 33.765 30.8238C33.1273 27.784 31.8333 24.9224 30.8206 24.3098C30.608 24.1817 30.5009 24.2119 30.4599 24.2236C30.3461 24.2554 30.2013 24.3307 30.0975 24.6245C29.5577 26.1486 30.9771 30.1969 32.4761 32.3278C32.5655 32.449 32.6086 32.5981 32.5979 32.7483C32.5871 32.8985 32.5232 33.0399 32.4175 33.1472C32.2992 33.2655 32.1388 33.332 31.9714 33.3322Z" fill="#262522"/>
<path d="M37.5918 32.0133C37.4803 32.0133 37.3708 31.9836 37.2746 31.9272C37.1783 31.8709 37.0989 31.7899 37.0443 31.6927C36.9898 31.5954 36.9621 31.4854 36.9642 31.3739C36.9663 31.2624 36.998 31.1535 37.0561 31.0583C38.6229 28.4939 39.5779 25.5579 39.1854 24.515C39.1092 24.3125 39.0062 24.2556 38.9058 24.2246C38.4865 24.0898 37.4369 24.7828 35.1571 30.8926C35.1282 30.9698 35.0845 31.0405 35.0283 31.1007C34.9721 31.161 34.9046 31.2096 34.8296 31.2437C34.7547 31.2779 34.6737 31.2969 34.5914 31.2998C34.5091 31.3027 34.427 31.2893 34.3498 31.2605C34.2727 31.2316 34.202 31.1878 34.1417 31.1317C34.0815 31.0755 34.0329 31.008 33.9987 30.933C33.9646 30.8581 33.9455 30.7771 33.9426 30.6948C33.9398 30.6125 33.9531 30.5304 33.982 30.4532C35.5186 26.3362 37.1942 22.3757 39.2824 23.0252C39.7913 23.1842 40.1646 23.5466 40.363 24.0714C41.0961 26.0215 39.223 29.9217 38.13 31.712C38.0736 31.8041 37.9945 31.8802 37.9002 31.933C37.806 31.9857 37.6998 32.0134 37.5918 32.0133Z" fill="#262522"/>
</g>
<path d="M53.7048 27.8579L59.5688 30.2085L59.4711 31.605L52.3151 28.4597L52.381 27.517L53.7048 27.8579ZM59.8288 26.493L53.6956 27.989L52.3362 28.1573L52.4026 27.2095L59.9262 25.1016L59.8288 26.493Z" fill="#262522"/>
<path d="M51.6491 36.2747L50.6835 35.9935L51.7759 32.2429L52.7415 32.5241L51.6491 36.2747ZM58.7402 34.6451L51.6756 32.5873L52.0303 31.3695L59.0949 33.4272L58.7402 34.6451ZM54.9408 36.7019L53.9898 36.4249L54.9395 33.1643L55.8905 33.4413L54.9408 36.7019ZM57.7551 38.0269L56.7847 37.7443L57.8701 34.0179L58.8405 34.3006L57.7551 38.0269Z" fill="#262522"/>
<path d="M50.8189 43.9159L48.3826 42.5158C48.3149 42.3565 48.2649 42.1392 48.2325 41.8642C48.2014 41.5937 48.2254 41.2714 48.3045 40.8972C48.3835 40.5229 48.5582 40.1007 48.8285 39.6304C49.0584 39.2302 49.3363 38.9022 49.662 38.6464C49.9907 38.3923 50.3561 38.2195 50.7584 38.1282C51.1589 38.0397 51.5854 38.038 52.0378 38.1231C52.493 38.2099 52.9631 38.3926 53.448 38.6713L53.8906 38.9256C54.3726 39.2026 54.7676 39.5092 55.0756 39.8456C55.3848 40.1865 55.6054 40.5464 55.7374 40.9253C55.8693 41.3043 55.9102 41.693 55.8599 42.0915C55.8109 42.4947 55.6688 42.9007 55.4338 43.3097C55.1333 43.8326 54.7973 44.2145 54.4256 44.4556C54.0552 44.7012 53.6629 44.8294 53.2487 44.8401C52.8346 44.8508 52.416 44.7676 51.9931 44.5907L52.6126 43.5128C52.8547 43.6053 53.0928 43.6508 53.3268 43.6493C53.5592 43.6507 53.7787 43.5865 53.9855 43.4566C54.1935 43.3313 54.3822 43.1212 54.5518 42.8261C54.6978 42.572 54.7781 42.3208 54.7925 42.0726C54.8069 41.8244 54.7575 41.5824 54.6444 41.3464C54.5296 41.1134 54.3564 40.8875 54.1245 40.6688C53.8927 40.4501 53.6045 40.2417 53.2598 40.0436L52.8085 39.7842C52.4579 39.5828 52.1259 39.4405 51.8122 39.3574C51.4969 39.2773 51.2055 39.2536 50.938 39.2864C50.6688 39.3221 50.4272 39.4144 50.2133 39.5635C50.0023 39.7143 49.823 39.9182 49.6752 40.1753C49.5309 40.4265 49.433 40.6442 49.3815 40.8283C49.333 41.0142 49.3111 41.1706 49.3158 41.2977C49.3218 41.4293 49.3374 41.5374 49.3627 41.6219L50.629 42.3496L51.3919 41.0219L52.2113 41.4928L50.8189 43.9159Z" fill="#262522"/>
<path d="M48.9981 50.2576L46.0349 44.1972L46.9734 43.2562L50.2276 50.4132L49.6281 51.0143L48.9981 50.2576ZM43.1834 47.0562L49.2551 49.9999L50.0171 50.6243L49.4139 51.229L42.2413 48.0009L43.1834 47.0562ZM45.1906 48.9082L44.4785 48.198L47.305 45.3641L48.017 46.0743L45.1906 48.9082Z" fill="#262522"/>
<path d="M39.6956 58.3668L36.0178 51.9937L37.1164 51.3597L42.6093 54.2756L39.9747 49.7103L41.0733 49.0762L44.7511 55.4493L43.6525 56.0833L38.1458 53.1638L40.7855 57.7379L39.6956 58.3668Z" fill="#262522"/>
<path d="M13.9395 37.0662L8.14952 34.5385L8.28962 33.1456L15.3468 36.5068L15.2522 37.4471L13.9395 37.0662ZM7.77677 38.2443L13.9526 36.9355L15.3165 36.8085L15.2214 37.7538L7.63718 39.6322L7.77677 38.2443Z" fill="#262522"/>
<path d="M16.2499 28.7157L17.2065 29.0261L16.0006 32.7418L15.044 32.4314L16.2499 28.7157ZM9.11257 30.1291L16.1114 32.4005L15.7198 33.6071L8.72101 31.3357L9.11257 30.1291ZM12.9727 28.1887L13.9149 28.4945L12.8665 31.7247L11.9244 31.4189L12.9727 28.1887ZM10.1999 26.7788L11.1613 27.0908L9.96318 30.7824L9.00181 30.4704L10.1999 26.7788Z" fill="#262522"/>
<path d="M17.3119 21.1033L19.7045 22.5767C19.7673 22.7381 19.8107 22.9567 19.8347 23.2326C19.8576 23.5039 19.8238 23.8254 19.7334 24.197C19.643 24.5687 19.4556 24.9855 19.1712 25.4473C18.9292 25.8404 18.6415 26.1598 18.3081 26.4055C17.9719 26.6495 17.6013 26.8111 17.1965 26.8902C16.7935 26.9664 16.3672 26.9552 15.9176 26.8564C15.4651 26.7558 15.0008 26.5589 14.5246 26.2656L14.09 25.998C13.6166 25.7065 13.2311 25.3879 12.9335 25.0424C12.6348 24.6923 12.4252 24.3258 12.3048 23.9431C12.1844 23.5603 12.1554 23.1705 12.2178 22.7737C12.279 22.3722 12.4333 21.9706 12.6807 21.569C12.9969 21.0555 13.3444 20.6839 13.7233 20.4543C14.101 20.22 14.497 20.1038 14.9113 20.1057C15.3256 20.1076 15.7414 20.2034 16.1587 20.3931L15.5068 21.4517C15.2676 21.3519 15.031 21.2992 14.797 21.2936C14.5648 21.2851 14.3434 21.3426 14.1328 21.4662C13.9211 21.5851 13.726 21.7894 13.5476 22.0792C13.3939 22.3287 13.3061 22.5773 13.2842 22.825C13.2622 23.0726 13.3042 23.3161 13.4101 23.5554C13.5177 23.7918 13.684 24.0228 13.9091 24.2485C14.1342 24.4741 14.416 24.6912 14.7545 24.8997L15.1977 25.1726C15.5419 25.3846 15.8696 25.5369 16.1805 25.6295C16.4932 25.7192 16.7838 25.7517 17.0522 25.7271C17.3224 25.6996 17.5666 25.6146 17.785 25.4721C18.0004 25.3278 18.1859 25.1294 18.3414 24.877C18.4933 24.6302 18.5978 24.4156 18.6548 24.2331C18.7089 24.0488 18.7356 23.8931 18.7347 23.766C18.7328 23.6342 18.7204 23.5257 18.6977 23.4405L17.4541 22.6747L16.6512 23.9785L15.8465 23.483L17.3119 21.1033Z" fill="#262522"/>
<path d="M19.3245 14.8199L22.1023 20.9674L21.1356 21.8795L18.1003 14.627L18.7179 14.0444L19.3245 14.8199ZM25.0393 18.1964L19.0599 15.0696L18.3172 14.4224L18.9384 13.8363L26.0097 17.2808L25.0393 18.1964ZM23.0893 16.2843L23.7795 17.0158L20.8682 19.7625L20.1781 19.031L23.0893 16.2843Z" fill="#262522"/>
<path d="M28.8691 6.99695L32.3516 13.4788L31.2342 14.0792L25.8325 10.9978L28.3272 15.641L27.2098 16.2414L23.7273 9.7595L24.8447 9.15915L30.2601 12.2447L27.7606 7.59251L28.8691 6.99695Z" fill="#262522"/>
<defs>
<clipPath id="clip0_2_2928">
<rect width="20.087" height="20.087" fill="white" transform="translate(22.9565 22.9565)"/>
</clipPath>
</defs>
</svg>
