<svg width="35" height="35" viewBox="0 0 35 35" fill="none" xmlns="http://www.w3.org/2000/svg">
<path d="M24.7916 18.9582L18.9583 32.0832C17.7979 32.0832 16.6851 31.6223 15.8647 30.8018C15.0442 29.9813 14.5833 28.8685 14.5833 27.7082V21.8749H6.32909C5.90631 21.8797 5.48754 21.7925 5.1018 21.6194C4.71606 21.4462 4.37257 21.1913 4.09513 20.8723C3.81769 20.5532 3.61294 20.1776 3.49505 19.7716C3.37717 19.3655 3.34897 18.9387 3.41242 18.5207L5.42492 5.39571C5.53039 4.70022 5.88366 4.06628 6.41964 3.6107C6.95562 3.15512 7.63819 2.90859 8.34159 2.91654H24.7916M24.7916 18.9582V2.91654M24.7916 18.9582H28.6853C29.5107 18.9728 30.3127 18.6838 30.9391 18.1462C31.5654 17.6085 31.9726 16.8596 32.0833 16.0415V5.83321C31.9726 5.01517 31.5654 4.26623 30.9391 3.72857C30.3127 3.19091 29.5107 2.90195 28.6853 2.91654H24.7916" stroke="#1E1E1E" stroke-width="4" stroke-linecap="round" stroke-linejoin="round"/>
</svg>
