<svg width="25" height="25" viewBox="0 0 25 25" fill="none" xmlns="http://www.w3.org/2000/svg">
<path d="M15.9024 21.5V14.5344H18.2347L18.5838 11.8265H15.9024V10.0976C15.9024 9.31364 16.12 8.77934 17.2443 8.77934L18.6783 8.77867V6.35676C18.4302 6.32382 17.5791 6.25006 16.5888 6.25006C14.5213 6.25006 13.106 7.51198 13.106 9.82952V11.8265H10.7677V14.5344H13.106V21.5H4.5C3.94772 21.5 3.5 21.0523 3.5 20.5V4.5C3.5 3.94772 3.94772 3.5 4.5 3.5H20.5C21.0523 3.5 21.5 3.94772 21.5 4.5V20.5C21.5 21.0523 21.0523 21.5 20.5 21.5H15.9024Z" fill="#F0EBE1"/>
</svg>
