<svg width="25" height="25" viewBox="0 0 25 25" fill="none" xmlns="http://www.w3.org/2000/svg">
<path d="M13.5281 2.50049C14.6535 2.50235 15.2238 2.50831 15.7166 2.52298L15.9107 2.52932C16.1349 2.53729 16.3561 2.54729 16.6228 2.55979C17.6869 2.60896 18.4128 2.77729 19.0503 3.02479C19.7094 3.27896 20.2661 3.62229 20.8219 4.17813C21.3769 4.73396 21.7203 5.29229 21.9753 5.94979C22.2219 6.58646 22.3903 7.31313 22.4403 8.37729C22.4522 8.64396 22.4618 8.86516 22.4697 9.0894L22.476 9.28349C22.4906 9.77623 22.4973 10.3466 22.4994 11.4721L22.5002 12.2177C22.5003 12.3088 22.5003 12.4028 22.5003 12.4998L22.5002 12.7819L22.4996 13.5276C22.4977 14.653 22.4918 15.2234 22.4771 15.7161L22.4707 15.9102C22.4628 16.1345 22.4528 16.3557 22.4403 16.6223C22.3911 17.6865 22.2219 18.4123 21.9753 19.0498C21.7211 19.709 21.3769 20.2657 20.8219 20.8215C20.2661 21.3765 19.7069 21.7198 19.0503 21.9748C18.4128 22.2215 17.6869 22.3898 16.6228 22.4398C16.3561 22.4517 16.1349 22.4614 15.9107 22.4692L15.7166 22.4755C15.2238 22.4902 14.6535 22.4968 13.5281 22.499L12.7824 22.4998C12.6913 22.4998 12.5973 22.4998 12.5003 22.4998H12.2182L11.4725 22.4991C10.3471 22.4973 9.77672 22.4913 9.28397 22.4766L9.08989 22.4703C8.86564 22.4623 8.64444 22.4523 8.37778 22.4398C7.31361 22.3907 6.58861 22.2215 5.95028 21.9748C5.29194 21.7207 4.73444 21.3765 4.17861 20.8215C3.62278 20.2657 3.28028 19.7065 3.02528 19.0498C2.77778 18.4123 2.61028 17.6865 2.56028 16.6223C2.5484 16.3557 2.53871 16.1345 2.53086 15.9102L2.52457 15.7161C2.50994 15.2234 2.50327 14.653 2.50111 13.5276L2.50098 11.4721C2.50284 10.3466 2.50879 9.77623 2.52346 9.28349L2.52981 9.0894C2.53778 8.86516 2.54778 8.64396 2.56028 8.37729C2.60944 7.31229 2.77778 6.58729 3.02528 5.94979C3.27944 5.29146 3.62278 4.73396 4.17861 4.17813C4.73444 3.62229 5.29278 3.27979 5.95028 3.02479C6.58778 2.77729 7.31278 2.60979 8.37778 2.55979C8.64444 2.54792 8.86564 2.53823 9.08989 2.53038L9.28397 2.52409C9.77672 2.50945 10.3471 2.50278 11.4725 2.50062L13.5281 2.50049ZM12.5003 7.49979C9.73738 7.49979 7.50028 9.73932 7.50028 12.4998C7.50028 15.2627 9.73981 17.4998 12.5003 17.4998C15.2632 17.4998 17.5003 15.2603 17.5003 12.4998C17.5003 9.73689 15.2607 7.49979 12.5003 7.49979ZM12.5003 9.49979C14.1572 9.49979 15.5003 10.8425 15.5003 12.4998C15.5003 14.1567 14.1576 15.4998 12.5003 15.4998C10.8434 15.4998 9.50028 14.1572 9.50028 12.4998C9.50028 10.8429 10.8429 9.49979 12.5003 9.49979ZM17.7503 5.99979C17.061 5.99979 16.5003 6.5597 16.5003 7.24894C16.5003 7.93819 17.0602 8.49896 17.7503 8.49896C18.4395 8.49896 19.0003 7.93906 19.0003 7.24894C19.0003 6.5597 18.4386 5.99893 17.7503 5.99979Z" fill="#F0EBE1"/>
</svg>
