<svg width="35" height="35" viewBox="0 0 35 35" fill="none" xmlns="http://www.w3.org/2000/svg">
<path d="M10.2084 16.0415L16.0417 2.9165C17.2021 2.9165 18.3149 3.37744 19.1353 4.19791C19.9558 5.01838 20.4167 6.13118 20.4167 7.2915V13.1248H28.6709C29.0937 13.12 29.5125 13.2072 29.8982 13.3804C30.2839 13.5535 30.6274 13.8084 30.9049 14.1275C31.1823 14.4465 31.3871 14.8221 31.505 15.2281C31.6228 15.6342 31.651 16.061 31.5876 16.479L29.5751 29.604C29.4696 30.2995 29.1163 30.9334 28.5804 31.389C28.0444 31.8446 27.3618 32.0911 26.6584 32.0832H10.2084M10.2084 16.0415V32.0832M10.2084 16.0415H5.83341C5.05987 16.0415 4.318 16.3488 3.77102 16.8958C3.22404 17.4428 2.91675 18.1846 2.91675 18.9582V29.1665C2.91675 29.9401 3.22404 30.6819 3.77102 31.2289C4.318 31.7759 5.05987 32.0832 5.83341 32.0832H10.2084" stroke="#1E1E1E" stroke-width="4" stroke-linecap="round" stroke-linejoin="round"/>
</svg>
