<svg width="25" height="25" viewBox="0 0 25 25" fill="none" xmlns="http://www.w3.org/2000/svg">
<path d="M17.1 6.32C16.4164 5.53962 16.0397 4.53743 16.04 3.5H12.95V15.9C12.9261 16.571 12.6428 17.2066 12.1597 17.6729C11.6766 18.1393 11.0314 18.3999 10.36 18.4C8.93997 18.4 7.75997 17.24 7.75997 15.8C7.75997 14.08 9.41997 12.79 11.13 13.32V10.16C7.67997 9.7 4.65997 12.38 4.65997 15.8C4.65997 19.13 7.41997 21.5 10.35 21.5C13.49 21.5 16.04 18.95 16.04 15.8V9.51C17.293 10.4099 18.7973 10.8926 20.34 10.89V7.8C20.34 7.8 18.46 7.89 17.1 6.32Z" fill="#F0EBE1"/>
</svg>
